<svg xmlns="http://www.w3.org/2000/svg" version="1.1" id="Layer_1" x="0" y="0" viewBox="0 0 338 78.1" xml:space="preserve"><path d="M100 14.4c0-5.7 4.7-10 10.3-10 2.5 0 4.2.6 5.7 1.4l.1 4.6h-.7L114 6.8c-1.1-.8-2.4-1.5-4.4-1.5-3.6 0-6.4 3.4-6.4 8.1 0 6.1 3.3 9.1 7 9.1 1.9 0 3.2-.9 3.9-1.5l2.1-4h.8l-.8 4.6c-2.2 1.1-4.2 1.8-6.8 1.8-6.5 0-9.4-4.7-9.4-9zm18.8 5.6c0-2.2 1.6-3.2 4.4-3.9l2.7-.7v-1.5c0-2-1-3.3-2.5-3.3-.8 0-1.4.2-1.7.5l-.1 2.8c-.3.1-.7.1-1.1.1-.8 0-1.3-.4-1.3-1.1 0-1.3 2.4-3.3 5.4-3.3 2.8 0 3.9 1.3 3.9 3.9V21c0 .6.2.8.8.8h1.3v.4s-1.6.9-2.6.9c-1.4 0-2-.8-2-2.1h-.1c-1 1.2-2 2.2-3.8 2.2-1.6 0-3.3-1-3.3-3.2zm7.1 0v-3.9l-2.6.9c-1.3.4-1.8 1.2-1.8 2.2 0 1.2.6 2.2 2.1 2.2 1 .1 1.8-.7 2.3-1.4zm5.8 2.2l1.6-.5v-9.3l-1.7-.9v-.4l3.9-1.4h.1l.1 2.5h.1c.5-.6 2.5-2.5 4.6-2.5 2.3 0 3.5 1.1 3.5 4.5v7.5l1.7.6v.6h-5.8v-.6l1.6-.5v-7.5c-.1-1.6-.7-2.7-2.5-2.7-1.3 0-2.6 1-3.1 1.4v8.8l1.7.5v.6h-5.9v-.7zm15.2-2.2c0-2.2 1.6-3.2 4.4-3.9l2.7-.7v-1.5c0-2-1-3.3-2.5-3.3-.8 0-1.4.2-1.7.5l-.1 2.8c-.3.1-.7.1-1.1.1-.8 0-1.3-.4-1.3-1.1 0-1.3 2.4-3.3 5.4-3.3 2.8 0 3.9 1.3 3.9 3.9V21c0 .6.2.8.8.8h1.3v.4s-1.6.9-2.6.9c-1.4 0-2-.8-2-2.1h-.1c-1 1.2-2 2.2-3.8 2.2-1.6 0-3.3-1-3.3-3.2zm7.1 0v-3.9l-2.6.9c-1.3.4-1.8 1.2-1.8 2.2 0 1.2.6 2.2 2.1 2.2 1 .1 1.8-.7 2.3-1.4zm12.4-16.2l4.5-1.2v18.7l1.8.5v.5l-4 .8-.3-1.8c-.8.8-2.2 1.9-3.8 1.9-3.5 0-5.5-3-5.5-6.2 0-4.4 3.8-7.4 7.2-7.4.7 0 1.4.2 2 .4V5l-2-.9v-.3zm2 16.8v-8.3c-.4-.5-1.2-1.5-2.9-1.5-1.9 0-3.7 1.5-3.7 5.2 0 2.4 1.2 5.6 4.2 5.6.9-.1 1.8-.5 2.4-1zm5.7 1.6l1.6-.5v-9.3l-1.6-.9v-.4l4.1-1.4v12l1.9.5v.6h-6v-.6zm1-17.5c0-.9.8-1.7 1.8-1.7.9 0 1.7.8 1.7 1.7 0 .9-.8 1.7-1.7 1.7-.9 0-1.8-.8-1.8-1.7zm6.3 15.3c0-2.2 1.6-3.2 4.4-3.9l2.7-.7v-1.5c0-2-1-3.3-2.5-3.3-.8 0-1.4.2-1.7.5l-.1 2.8c-.3.1-.7.1-1.1.1-.8 0-1.3-.4-1.3-1.1 0-1.3 2.4-3.3 5.4-3.3 2.8 0 3.9 1.3 3.9 3.9V21c0 .6.2.8.8.8h1.3v.4s-1.6.9-2.6.9c-1.4 0-2-.8-2-2.1h-.1c-1 1.2-2 2.2-3.8 2.2-1.6 0-3.3-1-3.3-3.2zm7 0v-3.9l-2.6.9c-1.3.4-1.8 1.2-1.8 2.2 0 1.2.6 2.2 2.1 2.2 1 .1 1.9-.7 2.3-1.4zm5.9 2.2l1.6-.5v-9.3l-1.7-.9v-.4l3.9-1.4h.1l.1 2.5h.1c.5-.6 2.5-2.5 4.6-2.5 2.3 0 3.5 1.1 3.5 4.5v7.5l1.7.6v.6h-5.8v-.6l1.6-.5v-7.5c-.1-1.6-.7-2.7-2.5-2.7-1.3 0-2.6 1-3.1 1.4v8.8l1.7.5v.6h-5.9v-.7zm-92.9 17.7V30l-2.1-.6v-.6h7.4v.6l-2.3.6v9.3c0 3.6 1.1 6.6 4.8 6.6 3.6 0 5.1-2.2 5.3-5.9v-9.8l-3.1-.8v-.6h6.5v.6l-2.1.7v9.6c0 5.1-3.1 7.6-7.2 7.6-5.3.1-7.2-2.9-7.2-7.4zm17 6.3l1.6-.5v-9.3l-1.7-.9v-.4l3.9-1.4h.1l.1 3.5h.1l.3-.6c1.3-2.5 2.1-3 3.2-3 .8 0 1.5.5 1.5 1.3s-.4 1.2-1 1.6l-1.8-.7c-.5.1-1.5 1.1-2.1 2.5v7.3l2.1.5v.6h-6.3v-.5zm11.8.4l-1-.4V29l-1.7-.7V28l4.2-1.3v9.2c.8-.9 2.2-2.1 4.2-2.1 2.5 0 5 1.8 5 6 0 4-3.9 7.5-7.6 7.5-1.3-.1-2.4-.4-3.1-.7zm1.5-10.2V45c.5.7 1.6 1.1 2.6 1.1 2.2 0 3.9-1.7 3.9-5.5 0-3.1-1.8-5.3-3.9-5.3-1.1-.1-2 .5-2.6 1.1zm10.8 7.6c0-2.2 1.6-3.2 4.4-3.9l2.7-.7v-1.5c0-2-1-3.3-2.5-3.3-.8 0-1.4.2-1.7.5l-.1 2.8c-.3.1-.7.1-1.1.1-.8 0-1.3-.4-1.3-1.1 0-1.3 2.4-3.3 5.4-3.3 2.8 0 3.9 1.3 3.9 3.9V45c0 .6.2.8.8.8h1.3v.4s-1.6.9-2.6.9c-1.4 0-2-.8-2-2.1h-.1c-1 1.2-2 2.2-3.8 2.2-1.6 0-3.3-1-3.3-3.2zm7.1 0v-3.9l-2.6.9c-1.3.4-1.8 1.2-1.8 2.2 0 1.2.6 2.2 2.1 2.2.9.1 1.8-.7 2.3-1.4zm5.8 2.2l1.6-.5v-9.3l-1.7-.9v-.4l3.9-1.4h.1l.1 2.5h.1c.5-.6 2.5-2.5 4.6-2.5 2.3 0 3.5 1.1 3.5 4.5v7.5l1.7.6v.6h-5.8v-.6l1.6-.5v-7.5c-.1-1.6-.7-2.7-2.5-2.7-1.3 0-2.6 1-3.1 1.4v8.8l1.7.5v.6h-5.9v-.7zM99.6 70.1l2.1-.5V54l-2.1-.6v-.6h7v.6l-2.1.6v15.6l2.1.5v.6h-7v-.6zm8.8.1l1.6-.5v-9.3l-1.7-.9v-.4l3.9-1.4h.1l.1 2.5h.1c.5-.6 2.5-2.5 4.6-2.5 2.3 0 3.5 1.1 3.5 4.5v7.5l1.7.6v.6h-5.8v-.6l1.6-.5v-7.5c-.1-1.6-.7-2.7-2.5-2.7-1.3 0-2.6 1-3.1 1.4v8.8l1.7.5v.6h-5.9v-.7zm15.6.1l-.2-3.9h.5l1.3 3.2c.5.5 1.1.8 2 .8 1.6 0 2.6-1.1 2.6-2.4 0-1.1-.5-1.7-2.1-2.3l-1.8-.8c-1.5-.6-2.5-1.5-2.5-3.4 0-2.3 2.2-3.9 5-3.9 1.3 0 2.4.4 3.3.9v3.4h-.5l-1.2-2.7c-.4-.3-1.1-.7-1.8-.7-1.4 0-2.2 1-2.2 2.1 0 1.2.7 1.8 2.1 2.3l1.2.5c2.3.9 3.1 1.9 3.1 3.5 0 2.6-2.5 4.3-5.3 4.3-1.4 0-2.7-.5-3.5-.9zm11.9-2.4l.1-8.6h-2v-.8l2-.6 1.8-3.4h.6V58h3.7v1.4h-3.7v8.5c.2 1.3.9 1.7 2.1 1.7.9 0 1.8-.4 1.9-.4l.2.5c-.1.1-1.5 1.3-3.7 1.3-2.3.1-3.1-1.1-3-3.1zm7.8 2.3l1.6-.5v-9.3l-1.6-.9v-.4l4.1-1.4v12l1.9.5v.6h-6v-.6zm1-17.5c0-.9.8-1.7 1.8-1.7.9 0 1.7.8 1.7 1.7 0 .9-.8 1.7-1.7 1.7-1 0-1.8-.8-1.8-1.7zm7.1 15.2l.1-8.6h-2v-.8l2-.6 1.8-3.4h.6V58h3.7v1.4h-3.7v8.5c.2 1.3.9 1.7 2.1 1.7.9 0 1.8-.4 1.9-.4l.2.5c-.1.1-1.5 1.3-3.7 1.3-2.4.1-3.1-1.1-3-3.1zm17.2.9c-.6.8-2.2 2.5-4.3 2.5-2.5 0-3.8-1.7-3.8-4.3v-7.3l-1.7-.6v-.5l4.2-.7v8.6c0 2.1 1 3 2.6 3 1.3 0 2.4-.8 2.9-1.2v-8.6l-2-.6v-.5l4.5-.7v11.5l1.9.7v.5l-4.1.7-.2-2.5zm6.5-.9l.1-8.6h-2v-.8l2-.6 1.8-3.4h.6V58h3.7v1.4H178v8.5c.2 1.3.9 1.7 2.1 1.7.9 0 1.8-.4 1.9-.4l.2.5c-.1.1-1.5 1.3-3.7 1.3-2.3.1-3-1.1-3-3.1zm7.2-3.2c0-3.9 2.9-7.1 6.2-7.1 2.8 0 4.5 1.7 4.9 5.2h-8.7v.7c0 3.5 1.8 5.6 4.5 5.6 1.8 0 3.2-1.2 3.9-1.9l.4.3c-.9 1.5-2.5 3.6-5.6 3.6-3.6.1-5.6-3.2-5.6-6.4zm2.5-2.7h5.7c-.3-2.2-1.1-3.5-2.7-3.5-1.6.1-2.7 1.4-3 3.5z" fill="#ffffff"/><path d="M227.2 22.1l2.1-.5V6l-2.1-.6v-.5h7v.6l-2 .5v15.6l2.1.5v.6h-7v-.6zm8.8.1l1.6-.5v-9.3l-1.7-.9v-.4l3.9-1.4h.1l.1 2.5h.1c.5-.6 2.5-2.5 4.6-2.5 2.3 0 3.5 1.1 3.5 4.5v7.5l1.7.6v.6h-5.8v-.6l1.6-.5v-7.5c-.1-1.6-.7-2.7-2.5-2.7-1.3 0-2.6 1-3.1 1.4v8.8l1.7.5v.6H236v-.7zm15.6.1l-.2-3.9h.5l1.3 3.2c.5.5 1.1.8 2 .8 1.6 0 2.6-1.1 2.6-2.4 0-1.1-.5-1.7-2.1-2.3l-1.8-.8c-1.5-.6-2.5-1.5-2.5-3.4 0-2.3 2.2-3.9 5-3.9 1.3 0 2.4.4 3.3.9v3.4h-.5l-1.2-2.7c-.4-.3-1.1-.7-1.8-.7-1.4 0-2.2 1-2.2 2.1 0 1.2.7 1.8 2.1 2.3l1.2.5c2.3.9 3.1 1.9 3.1 3.5 0 2.6-2.5 4.3-5.3 4.3-1.4 0-2.7-.5-3.5-.9zm11.9-2.4l.1-8.6h-2v-.8l2-.6 1.8-3.4h.6V10h3.7v1.4H266v8.5c.2 1.3.9 1.7 2.1 1.7.9 0 1.8-.4 1.9-.4l.2.5c-.1.1-1.5 1.3-3.7 1.3-2.3.1-3.1-1.1-3-3.1zm7.8 2.3l1.6-.5v-9.3l-1.6-.9v-.4l4.1-1.4v12l1.9.5v.6h-6v-.6zm1-17.5c0-.9.8-1.7 1.8-1.7.9 0 1.7.8 1.7 1.7 0 .9-.8 1.7-1.7 1.7-1 0-1.8-.8-1.8-1.7zm7.1 15.2l.1-8.6h-2v-.8l2-.6 1.8-3.4h.6V10h3.7v1.4h-3.7v8.5c.2 1.3.9 1.7 2.1 1.7.9 0 1.8-.4 1.9-.4l.2.5c-.1.1-1.5 1.3-3.7 1.3-2.4.1-3.1-1.1-3-3.1zm17.2.9c-.6.8-2.2 2.5-4.3 2.5-2.5 0-3.8-1.7-3.8-4.3v-7.3l-1.7-.6v-.5l4.2-.7v8.6c0 2.1 1 3 2.6 3 1.3 0 2.4-.8 2.9-1.2v-8.6l-2-.6v-.5l4.5-.7v11.5l2 .6v.5l-4.1.7-.3-2.4zm6.5-.9l.1-8.6h-2v-.8l2-.6 1.8-3.4h.6V10h3.7v1.4h-3.7v8.5c.2 1.3.9 1.7 2.1 1.7.9 0 1.8-.4 1.9-.4l.2.5c-.1.1-1.5 1.3-3.7 1.3-2.3.1-3-1.1-3-3.1zm-74.1 20V30l-2.1-.6v-.6h7.4v.6l-2.3.6v9.3c0 3.6 1.1 6.6 4.8 6.6 3.6 0 5.1-2.2 5.3-5.9v-9.8l-3.1-.8v-.6h6.5v.6l-2.1.7v9.6c0 5.1-3.1 7.6-7.2 7.6-5.3.1-7.2-2.9-7.2-7.4zm17 6.3l1.6-.5v-9.3l-1.7-.9v-.4l3.9-1.4h.1l.1 3.5h.1l.3-.6c1.3-2.5 2.1-3 3.2-3 .8 0 1.5.5 1.5 1.3s-.4 1.2-1 1.6l-1.8-.7c-.5.1-1.5 1.1-2.1 2.5v7.3l2.1.5v.6H246v-.5zm11.8.4l-1-.4V29l-1.7-.7V28l4.2-1.3v9.2c.8-.9 2.2-2.1 4.2-2.1 2.5 0 5 1.8 5 6 0 4-3.9 7.5-7.6 7.5-1.3-.1-2.4-.4-3.1-.7zm1.5-10.2V45c.5.7 1.6 1.1 2.6 1.1 2.2 0 3.9-1.7 3.9-5.5 0-3.1-1.8-5.3-3.9-5.3-1.1-.1-2 .5-2.6 1.1zm10.8 7.6c0-2.2 1.6-3.2 4.4-3.9l2.7-.7v-1.5c0-2-1-3.3-2.5-3.3-.8 0-1.4.2-1.7.5l-.1 2.8c-.3.1-.7.1-1.1.1-.8 0-1.3-.4-1.3-1.1 0-1.3 2.4-3.3 5.4-3.3 2.8 0 3.9 1.3 3.9 3.9V45c0 .6.2.8.8.8h1.3v.4s-1.6.9-2.6.9c-1.4 0-2-.8-2-2.1h-.1c-1 1.2-2 2.2-3.8 2.2-1.6 0-3.3-1-3.3-3.2zm7.1 0v-3.9l-2.6.9c-1.3.4-1.8 1.2-1.8 2.2 0 1.2.6 2.2 2.1 2.2.9.1 1.8-.7 2.3-1.4zm5.8 2.2l1.6-.5v-9.3l-1.6-.9v-.4l4.1-1.4v12l1.9.5v.6h-6v-.6zm1-17.5c0-.9.8-1.7 1.8-1.7.9 0 1.7.8 1.7 1.7 0 .9-.8 1.7-1.7 1.7-1 0-1.8-.8-1.8-1.7zm6.3 17.5l1.6-.5v-9.3l-1.7-.9v-.4l3.9-1.4h.1l.1 2.5h.1c.5-.6 2.5-2.5 4.6-2.5 2.3 0 3.5 1.1 3.5 4.5v7.5l1.7.6v.6h-5.8v-.6l1.6-.5v-7.5c-.1-1.6-.7-2.7-2.5-2.7-1.3 0-2.6 1-3.1 1.4v8.8l1.7.5v.6h-5.9v-.7zm26.8-18.4l4.5-1.2v18.7l1.8.5v.5l-4 .8-.3-1.8c-.8.8-2.2 1.9-3.8 1.9-3.5 0-5.5-3-5.5-6.2 0-4.4 3.8-7.4 7.2-7.4.7 0 1.4.2 2 .4v-5l-2-.9v-.3zm2 16.8v-8.3c-.4-.5-1.2-1.5-2.9-1.5-1.9 0-3.7 1.5-3.7 5.2 0 2.4 1.2 5.6 4.2 5.6.9-.1 1.8-.5 2.4-1zm14.5.2c-.6.8-2.2 2.5-4.3 2.5-2.5 0-3.8-1.7-3.8-4.3v-7.3l-1.7-.6v-.5l4.2-.7v8.6c0 2.1 1 3 2.6 3 1.3 0 2.4-.8 2.9-1.2v-8.6l-2-.6v-.5l4.5-.7v11.5l2 .6v.5l-4.1.7-.3-2.4zm-106 17.6c0-5.7 4.7-10 10.3-10 2.5 0 4.2.6 5.7 1.4l.1 4.6h-.7l-1.4-3.6c-1.1-.8-2.4-1.5-4.4-1.5-3.6 0-6.4 3.4-6.4 8.1 0 6.1 3.3 9.1 7 9.1 1.9 0 3.2-.9 3.9-1.5l2.1-4h.8l-.8 4.6c-2.2 1.1-4.2 1.8-6.8 1.8-6.5 0-9.4-4.7-9.4-9zm18.8 5.6c0-2.2 1.6-3.2 4.4-3.9l2.7-.7v-1.5c0-2-1-3.3-2.5-3.3-.8 0-1.4.2-1.7.5l-.1 2.8c-.3.1-.7.1-1.1.1-.8 0-1.3-.4-1.3-1.1 0-1.3 2.4-3.3 5.4-3.3 2.8 0 3.9 1.3 3.9 3.9V69c0 .6.2.8.8.8h1.3v.4s-1.6.9-2.6.9c-1.4 0-2-.8-2-2.1h-.1c-1 1.2-2 2.2-3.8 2.2-1.6 0-3.3-1-3.3-3.2zm7.1 0v-3.9l-2.6.9c-1.3.4-1.8 1.2-1.8 2.2 0 1.2.6 2.2 2.1 2.2 1 .1 1.8-.7 2.3-1.4zm5.8 2.2l1.6-.5v-9.3l-1.7-.9v-.4l3.9-1.4h.1l.1 2.5h.1c.5-.6 2.5-2.5 4.6-2.5 2.3 0 3.5 1.1 3.5 4.5v7.5l1.7.6v.6h-5.8v-.6l1.6-.5v-7.5c-.1-1.6-.7-2.7-2.5-2.7-1.3 0-2.6 1-3.1 1.4v8.8l1.7.5v.6h-5.9v-.7zm15.2-2.2c0-2.2 1.6-3.2 4.4-3.9l2.7-.7v-1.5c0-2-1-3.3-2.5-3.3-.8 0-1.4.2-1.7.5l-.1 2.8c-.3.1-.7.1-1.1.1-.8 0-1.3-.4-1.3-1.1 0-1.3 2.4-3.3 5.4-3.3 2.8 0 3.9 1.3 3.9 3.9V69c0 .6.2.8.8.8h1.3v.4s-1.6.9-2.6.9c-1.4 0-2-.8-2-2.1h-.1c-1 1.2-2 2.2-3.8 2.2-1.6 0-3.3-1-3.3-3.2zm7.1 0v-3.9l-2.6.9c-1.3.4-1.8 1.2-1.8 2.2 0 1.2.6 2.2 2.1 2.2 1 .1 1.8-.7 2.3-1.4zM294 51.8l4.5-1.2v18.7l1.8.5v.5l-4 .8-.3-1.8c-.8.8-2.2 1.9-3.8 1.9-3.5 0-5.5-3-5.5-6.2 0-4.4 3.8-7.4 7.2-7.4.7 0 1.4.2 2 .4v-5l-2-.9v-.3zm2 16.8v-8.3c-.4-.5-1.2-1.5-2.9-1.5-1.9 0-3.7 1.5-3.7 5.2 0 2.4 1.2 5.6 4.2 5.6.9-.1 1.8-.5 2.4-1zm5.7-.6c0-2.2 1.6-3.2 4.4-3.9l2.7-.7v-1.5c0-2-1-3.3-2.5-3.3-.8 0-1.4.2-1.7.5l-.1 2.8c-.3.1-.7.1-1.1.1-.8 0-1.3-.4-1.3-1.1 0-1.3 2.4-3.3 5.4-3.3 2.8 0 3.9 1.3 3.9 3.9V69c0 .6.2.8.8.8h1.3v.4s-1.6.9-2.6.9c-1.4 0-2-.8-2-2.1h-.1c-1 1.2-2 2.2-3.8 2.2-1.6 0-3.3-1-3.3-3.2zm7.1 0v-3.9l-2.6.9c-1.3.4-1.8 1.2-1.8 2.2 0 1.2.6 2.2 2.1 2.2 1 .1 1.8-.7 2.3-1.4z" fill="#ffffff"/><g fill="none" stroke-width="2.186" stroke-miterlimit="10"><path d="M36.7 0v12.5c0 1.3 1 2.3 2.3 2.3s2.3-1 2.3-2.3V0" stroke="#ffffff" fill="#ffffff"/><path d="M41.4 78.1V65.6c0-1.3-1-2.3-2.3-2.3s-2.3 1-2.3 2.3v12.5" stroke="#ffffff" fill="#ffffff"/><path d="M21.9 3.9l4.8 11.5c.5 1.2 1.9 1.8 3.1 1.3s1.8-1.9 1.3-3.1L26.3 2.1" stroke="#ffffff" fill="#ffffff"/><path d="M56.1 74.2l-4.8-11.5c-.5-1.2-1.9-1.8-3.1-1.3-1.2.5-1.8 1.9-1.3 3.1L51.8 76" stroke="#ffffff" fill="#ffffff"/><path d="M9.8 13.1l8.8 8.8c.9.9 2.4.9 3.3 0s.9-2.4 0-3.3l-8.8-8.8" stroke="#ffffff" fill="#ffffff"/><path d="M68.3 65l-8.8-8.8c-.9-.9-2.4-.9-3.3 0-.9.9-.9 2.4 0 3.3l8.8 8.8" stroke="#ffffff" fill="#ffffff"/><path d="M2.1 26.3L13.6 31c1.2.5 2.6-.1 3.1-1.3s-.1-2.6-1.3-3.1L3.9 21.9" stroke="#ffffff" fill="#ffffff"/><path d="M0 41.4h12.5c1.3 0 2.3-1 2.3-2.3s-1-2.3-2.3-2.3H0" stroke="#ffffff" fill="#ffffff"/><path d="M3.9 56.1l11.5-4.8c1.2-.5 1.8-1.9 1.3-3.1s-1.9-1.8-3.1-1.3L2.1 51.8" stroke="#ffffff" fill="#ffffff"/><path d="M13.1 68.3l8.8-8.8c.9-.9.9-2.4 0-3.3-.9-.9-2.4-.9-3.3 0L9.8 65" stroke="#ffffff" fill="#ffffff"/><path d="M65 9.8l-8.8 8.8c-.9.9-.9 2.4 0 3.3.9.9 2.4.9 3.3 0l8.8-8.8" stroke="#ffffff" fill="#ffffff"/><path d="M26.3 76L31 64.5c.5-1.2-.1-2.6-1.3-3.1s-2.6.1-3.1 1.3l-4.8 11.5" stroke="#ffffff" fill="#ffffff"/><path d="M51.8 2.1L47 13.6c-.5 1.2.1 2.6 1.3 3.1s2.6-.1 3.1-1.3l4.8-11.5" stroke="#ffffff" fill="#ffffff"/></g></svg>