<svg xmlns="http://www.w3.org/2000/svg" width="262" height="46" viewBox="0 0 262 46" fill="none"><path d="M0.51709 1.54545H5.06823L9.87504 13.2727H10.0796L14.8864 1.54545H19.4375V19H15.858V7.6392H15.7131L11.1961 18.9148H8.75857L4.24152 7.59659H4.09664V19H0.51709V1.54545Z" fill="#ffffff"/><path d="M26.1428 19.2472C25.3076 19.2472 24.5633 19.1023 23.9098 18.8125C23.2564 18.517 22.7394 18.0824 22.3587 17.5085C21.9837 16.929 21.7962 16.2074 21.7962 15.3438C21.7962 14.6165 21.9297 14.0057 22.1968 13.5114C22.4638 13.017 22.8275 12.6193 23.2877 12.3182C23.7479 12.017 24.2706 11.7898 24.8559 11.6364C25.4468 11.483 26.0661 11.375 26.7138 11.3125C27.4752 11.233 28.0888 11.1591 28.5547 11.0909C29.0206 11.017 29.3587 10.9091 29.5689 10.767C29.7792 10.625 29.8843 10.4148 29.8843 10.1364V10.0852C29.8843 9.54545 29.7138 9.12784 29.3729 8.83239C29.0377 8.53693 28.5604 8.3892 27.9411 8.3892C27.2877 8.3892 26.7678 8.53409 26.3814 8.82386C25.9951 9.10795 25.7394 9.46591 25.6144 9.89773L22.2564 9.625C22.4269 8.82955 22.7621 8.14204 23.2621 7.5625C23.7621 6.97727 24.407 6.52841 25.1968 6.21591C25.9922 5.89773 26.9127 5.73864 27.9581 5.73864C28.6854 5.73864 29.3814 5.82386 30.0462 5.99432C30.7167 6.16477 31.3104 6.42898 31.8275 6.78693C32.3502 7.14489 32.7621 7.60511 33.0633 8.16761C33.3644 8.72443 33.515 9.39205 33.515 10.1705V19H30.0718V17.1847H29.9695C29.7593 17.5937 29.478 17.9545 29.1258 18.267C28.7735 18.5739 28.3502 18.8153 27.8559 18.9915C27.3616 19.1619 26.7905 19.2472 26.1428 19.2472ZM27.1826 16.7415C27.7167 16.7415 28.1883 16.6364 28.5973 16.4261C29.0064 16.2102 29.3275 15.9205 29.5604 15.5568C29.7934 15.1932 29.9098 14.7812 29.9098 14.321V12.9318C29.7962 13.0057 29.64 13.0739 29.4411 13.1364C29.2479 13.1932 29.0292 13.2472 28.7848 13.2983C28.5405 13.3437 28.2962 13.3864 28.0519 13.4261C27.8076 13.4602 27.586 13.4915 27.3871 13.5199C26.961 13.5824 26.5888 13.6818 26.2706 13.8182C25.9525 13.9545 25.7053 14.1392 25.5292 14.3722C25.353 14.5994 25.265 14.8835 25.265 15.2244C25.265 15.7187 25.4439 16.0966 25.8019 16.358C26.1655 16.6136 26.6258 16.7415 27.1826 16.7415Z" fill="#ffffff"/><path d="M36.3317 19V5.90909H39.9624V19H36.3317ZM38.1556 4.22159C37.6158 4.22159 37.1527 4.04261 36.7664 3.68466C36.3857 3.32102 36.1954 2.88636 36.1954 2.38068C36.1954 1.88068 36.3857 1.4517 36.7664 1.09375C37.1527 0.730113 37.6158 0.548294 38.1556 0.548294C38.6954 0.548294 39.1556 0.730113 39.5363 1.09375C39.9226 1.4517 40.1158 1.88068 40.1158 2.38068C40.1158 2.88636 39.9226 3.32102 39.5363 3.68466C39.1556 4.04261 38.6954 4.22159 38.1556 4.22159Z" fill="#ffffff"/><path d="M46.5015 11.4318V19H42.8708V5.90909H46.331V8.21875H46.4844C46.7742 7.45739 47.26 6.85511 47.9418 6.41193C48.6236 5.96307 49.4503 5.73864 50.4219 5.73864C51.331 5.73864 52.1236 5.9375 52.7998 6.33523C53.4759 6.73295 54.0015 7.30114 54.3765 8.03977C54.7515 8.77273 54.939 9.64773 54.939 10.6648V19H51.3083V11.3125C51.314 10.5114 51.1094 9.88636 50.6946 9.4375C50.2799 8.98295 49.7089 8.75568 48.9816 8.75568C48.4929 8.75568 48.0611 8.8608 47.6861 9.07102C47.3168 9.28125 47.027 9.58807 46.8168 9.99148C46.6123 10.3892 46.5071 10.8693 46.5015 11.4318Z" fill="#ffffff"/><path d="M72.8921 6.56534C72.8239 5.87784 72.5313 5.34375 72.0143 4.96307C71.4972 4.58239 70.7955 4.39204 69.9091 4.39204C69.3069 4.39204 68.7983 4.47727 68.3836 4.64773C67.9688 4.8125 67.6506 5.04261 67.429 5.33807C67.2131 5.63352 67.1052 5.96875 67.1052 6.34375C67.0938 6.65625 67.1591 6.92898 67.3012 7.16193C67.4489 7.39489 67.6506 7.59659 67.9063 7.76705C68.162 7.93182 68.4574 8.0767 68.7927 8.2017C69.1279 8.32102 69.4858 8.4233 69.8665 8.50852L71.4347 8.88352C72.1961 9.05398 72.8949 9.28125 73.5313 9.56534C74.1677 9.84943 74.7188 10.1989 75.1847 10.6136C75.6506 11.0284 76.0114 11.517 76.2671 12.0795C76.5285 12.642 76.662 13.2869 76.6677 14.0142C76.662 15.0824 76.3893 16.0085 75.8495 16.7926C75.3154 17.571 74.5427 18.1761 73.5313 18.608C72.5256 19.0341 71.3125 19.2472 69.8921 19.2472C68.483 19.2472 67.2557 19.0313 66.2103 18.5994C65.1705 18.1676 64.358 17.5284 63.7728 16.6818C63.1932 15.8295 62.8892 14.7756 62.8608 13.5199H66.4319C66.4716 14.1051 66.6392 14.5937 66.9347 14.9858C67.2358 15.3722 67.6364 15.6648 68.1364 15.8636C68.6421 16.0568 69.2131 16.1534 69.8495 16.1534C70.4745 16.1534 71.0171 16.0625 71.4773 15.8807C71.9432 15.6989 72.304 15.446 72.5597 15.1222C72.8154 14.7983 72.9432 14.4261 72.9432 14.0057C72.9432 13.6136 72.8268 13.2841 72.5938 13.017C72.3665 12.75 72.0313 12.5227 71.5881 12.3352C71.1506 12.1477 70.6137 11.9773 69.9773 11.8239L68.0768 11.3466C66.6052 10.9886 65.4432 10.429 64.591 9.66761C63.7387 8.90625 63.3154 7.88068 63.3211 6.59091C63.3154 5.53409 63.5966 4.61079 64.1648 3.82102C64.7387 3.03125 65.5256 2.41477 66.5256 1.97159C67.5256 1.52841 68.662 1.30682 69.9347 1.30682C71.2302 1.30682 72.3608 1.52841 73.3268 1.97159C74.2983 2.41477 75.054 3.03125 75.5938 3.82102C76.1336 4.61079 76.412 5.52557 76.429 6.56534H72.8921Z" fill="#ffffff"/><path d="M86.0448 5.90909V8.63636H78.1613V5.90909H86.0448ZM79.951 2.77273H83.5817V14.9773C83.5817 15.3125 83.6329 15.5739 83.7351 15.7614C83.8374 15.9432 83.9795 16.071 84.1613 16.1449C84.3488 16.2187 84.5647 16.2557 84.809 16.2557C84.9794 16.2557 85.1499 16.2415 85.3204 16.2131C85.4908 16.179 85.6215 16.1534 85.7124 16.1364L86.2834 18.8381C86.1016 18.8949 85.8459 18.9602 85.5164 19.0341C85.1868 19.1136 84.7863 19.1619 84.3147 19.179C83.4397 19.2131 82.6726 19.0966 82.0135 18.8295C81.3601 18.5625 80.8516 18.1477 80.488 17.5852C80.1243 17.0227 79.9454 16.3125 79.951 15.4545V2.77273Z" fill="#ffffff"/><path d="M88.4098 19V5.90909H91.9297V8.19318H92.0661C92.3047 7.38068 92.7053 6.76704 93.2678 6.35227C93.8303 5.93182 94.478 5.72159 95.211 5.72159C95.3928 5.72159 95.5888 5.73295 95.799 5.75568C96.0093 5.77841 96.1939 5.80966 96.353 5.84943V9.07102C96.1826 9.01989 95.9468 8.97443 95.6456 8.93466C95.3445 8.89489 95.0689 8.875 94.8189 8.875C94.2848 8.875 93.8076 8.99148 93.3871 9.22443C92.9723 9.4517 92.6428 9.76989 92.3985 10.179C92.1598 10.5881 92.0405 11.0597 92.0405 11.5938V19H88.4098Z" fill="#ffffff"/><path d="M103.587 19.2557C102.24 19.2557 101.081 18.983 100.109 18.4375C99.1435 17.8864 98.3992 17.108 97.8765 16.1023C97.3537 15.0909 97.0924 13.8949 97.0924 12.5142C97.0924 11.1676 97.3537 9.9858 97.8765 8.96875C98.3992 7.9517 99.135 7.15909 100.084 6.59091C101.038 6.02273 102.158 5.73864 103.442 5.73864C104.305 5.73864 105.109 5.87784 105.854 6.15625C106.604 6.42898 107.257 6.84091 107.814 7.39205C108.376 7.94318 108.814 8.63636 109.126 9.47159C109.439 10.3011 109.595 11.2727 109.595 12.3864V13.3835H98.5412V11.1335H106.178C106.178 10.6108 106.064 10.1477 105.837 9.74432C105.609 9.34091 105.294 9.02557 104.891 8.7983C104.493 8.56534 104.03 8.44886 103.501 8.44886C102.95 8.44886 102.462 8.5767 102.036 8.83239C101.615 9.08239 101.286 9.42045 101.047 9.84659C100.808 10.267 100.686 10.7358 100.68 11.2528V13.392C100.68 14.0398 100.8 14.5994 101.038 15.071C101.283 15.5426 101.626 15.9062 102.07 16.1619C102.513 16.4176 103.038 16.5455 103.646 16.5455C104.05 16.5455 104.419 16.4886 104.754 16.375C105.09 16.2614 105.376 16.0909 105.615 15.8636C105.854 15.6364 106.036 15.358 106.161 15.0284L109.519 15.25C109.348 16.0568 108.999 16.7614 108.47 17.3636C107.947 17.9602 107.271 18.4261 106.442 18.7614C105.618 19.0909 104.666 19.2557 103.587 19.2557Z" fill="#ffffff"/><path d="M117.93 19.2557C116.584 19.2557 115.425 18.983 114.453 18.4375C113.487 17.8864 112.743 17.108 112.22 16.1023C111.697 15.0909 111.436 13.8949 111.436 12.5142C111.436 11.1676 111.697 9.9858 112.22 8.96875C112.743 7.9517 113.479 7.15909 114.428 6.59091C115.382 6.02273 116.501 5.73864 117.786 5.73864C118.649 5.73864 119.453 5.87784 120.197 6.15625C120.947 6.42898 121.601 6.84091 122.158 7.39205C122.72 7.94318 123.158 8.63636 123.47 9.47159C123.783 10.3011 123.939 11.2727 123.939 12.3864V13.3835H112.885V11.1335H120.521C120.521 10.6108 120.408 10.1477 120.18 9.74432C119.953 9.34091 119.638 9.02557 119.234 8.7983C118.837 8.56534 118.374 8.44886 117.845 8.44886C117.294 8.44886 116.805 8.5767 116.379 8.83239C115.959 9.08239 115.629 9.42045 115.391 9.84659C115.152 10.267 115.03 10.7358 115.024 11.2528V13.392C115.024 14.0398 115.144 14.5994 115.382 15.071C115.626 15.5426 115.97 15.9062 116.413 16.1619C116.857 16.4176 117.382 16.5455 117.99 16.5455C118.394 16.5455 118.763 16.4886 119.098 16.375C119.433 16.2614 119.72 16.0909 119.959 15.8636C120.197 15.6364 120.379 15.358 120.504 15.0284L123.862 15.25C123.692 16.0568 123.342 16.7614 122.814 17.3636C122.291 17.9602 121.615 18.4261 120.786 18.7614C119.962 19.0909 119.01 19.2557 117.93 19.2557Z" fill="#ffffff"/><path d="M133.271 5.90909V8.63636H125.388V5.90909H133.271ZM127.178 2.77273H130.808V14.9773C130.808 15.3125 130.859 15.5739 130.962 15.7614C131.064 15.9432 131.206 16.071 131.388 16.1449C131.575 16.2187 131.791 16.2557 132.036 16.2557C132.206 16.2557 132.376 16.2415 132.547 16.2131C132.717 16.179 132.848 16.1534 132.939 16.1364L133.51 18.8381C133.328 18.8949 133.072 18.9602 132.743 19.0341C132.413 19.1136 132.013 19.1619 131.541 19.179C130.666 19.2131 129.899 19.0966 129.24 18.8295C128.587 18.5625 128.078 18.1477 127.715 17.5852C127.351 17.0227 127.172 16.3125 127.178 15.4545V2.77273Z" fill="#ffffff"/><path d="M156.66 7.65625H152.927C152.859 7.17329 152.72 6.74432 152.509 6.36932C152.299 5.98864 152.029 5.66477 151.7 5.39773C151.37 5.13068 150.989 4.92614 150.558 4.78409C150.131 4.64205 149.668 4.57102 149.168 4.57102C148.265 4.57102 147.478 4.79545 146.808 5.24432C146.137 5.6875 145.617 6.33523 145.248 7.1875C144.879 8.03409 144.694 9.0625 144.694 10.2727C144.694 11.517 144.879 12.5625 145.248 13.4091C145.623 14.2557 146.146 14.8949 146.816 15.3267C147.487 15.7585 148.262 15.9744 149.143 15.9744C149.637 15.9744 150.094 15.9091 150.515 15.7784C150.941 15.6477 151.319 15.4574 151.648 15.2074C151.978 14.9517 152.251 14.642 152.467 14.2784C152.688 13.9148 152.842 13.5 152.927 13.0341L156.66 13.0511C156.563 13.8523 156.322 14.625 155.935 15.3693C155.555 16.108 155.041 16.7699 154.393 17.3551C153.751 17.9347 152.984 18.3949 152.092 18.7358C151.205 19.071 150.202 19.2386 149.083 19.2386C147.526 19.2386 146.134 18.8864 144.907 18.1818C143.685 17.4773 142.72 16.4574 142.009 15.1222C141.305 13.7869 140.952 12.1705 140.952 10.2727C140.952 8.36932 141.31 6.75 142.026 5.41477C142.742 4.07954 143.714 3.0625 144.941 2.36364C146.168 1.65909 147.549 1.30682 149.083 1.30682C150.095 1.30682 151.032 1.44886 151.896 1.73295C152.765 2.01704 153.535 2.43182 154.205 2.97727C154.876 3.51704 155.421 4.17898 155.842 4.96307C156.268 5.74716 156.541 6.64489 156.66 7.65625Z" fill="#ffffff"/><path d="M162.971 19.2472C162.136 19.2472 161.391 19.1023 160.738 18.8125C160.085 18.517 159.568 18.0824 159.187 17.5085C158.812 16.929 158.624 16.2074 158.624 15.3438C158.624 14.6165 158.758 14.0057 159.025 13.5114C159.292 13.017 159.656 12.6193 160.116 12.3182C160.576 12.017 161.099 11.7898 161.684 11.6364C162.275 11.483 162.894 11.375 163.542 11.3125C164.303 11.233 164.917 11.1591 165.383 11.0909C165.849 11.017 166.187 10.9091 166.397 10.767C166.607 10.625 166.712 10.4148 166.712 10.1364V10.0852C166.712 9.54545 166.542 9.12784 166.201 8.83239C165.866 8.53693 165.389 8.3892 164.769 8.3892C164.116 8.3892 163.596 8.53409 163.21 8.82386C162.823 9.10795 162.568 9.46591 162.443 9.89773L159.085 9.625C159.255 8.82955 159.59 8.14204 160.09 7.5625C160.59 6.97727 161.235 6.52841 162.025 6.21591C162.82 5.89773 163.741 5.73864 164.786 5.73864C165.514 5.73864 166.21 5.82386 166.874 5.99432C167.545 6.16477 168.139 6.42898 168.656 6.78693C169.178 7.14489 169.59 7.60511 169.891 8.16761C170.193 8.72443 170.343 9.39205 170.343 10.1705V19H166.9V17.1847H166.798C166.587 17.5937 166.306 17.9545 165.954 18.267C165.602 18.5739 165.178 18.8153 164.684 18.9915C164.19 19.1619 163.619 19.2472 162.971 19.2472ZM164.011 16.7415C164.545 16.7415 165.016 16.6364 165.425 16.4261C165.835 16.2102 166.156 15.9205 166.389 15.5568C166.621 15.1932 166.738 14.7812 166.738 14.321V12.9318C166.624 13.0057 166.468 13.0739 166.269 13.1364C166.076 13.1932 165.857 13.2472 165.613 13.2983C165.369 13.3437 165.124 13.3864 164.88 13.4261C164.636 13.4602 164.414 13.4915 164.215 13.5199C163.789 13.5824 163.417 13.6818 163.099 13.8182C162.781 13.9545 162.533 14.1392 162.357 14.3722C162.181 14.5994 162.093 14.8835 162.093 15.2244C162.093 15.7187 162.272 16.0966 162.63 16.358C162.994 16.6136 163.454 16.7415 164.011 16.7415Z" fill="#ffffff"/><path d="M176.791 11.4318V19H173.16V5.90909H176.62V8.21875H176.773C177.063 7.45739 177.549 6.85511 178.231 6.41193C178.913 5.96307 179.739 5.73864 180.711 5.73864C181.62 5.73864 182.413 5.9375 183.089 6.33523C183.765 6.73295 184.291 7.30114 184.666 8.03977C185.041 8.77273 185.228 9.64773 185.228 10.6648V19H181.597V11.3125C181.603 10.5114 181.398 9.88636 180.984 9.4375C180.569 8.98295 179.998 8.75568 179.271 8.75568C178.782 8.75568 178.35 8.8608 177.975 9.07102C177.606 9.28125 177.316 9.58807 177.106 9.99148C176.901 10.3892 176.796 10.8693 176.791 11.4318Z" fill="#ffffff"/><path d="M191.822 19.2472C190.987 19.2472 190.243 19.1023 189.59 18.8125C188.936 18.517 188.419 18.0824 188.038 17.5085C187.663 16.929 187.476 16.2074 187.476 15.3438C187.476 14.6165 187.609 14.0057 187.876 13.5114C188.144 13.017 188.507 12.6193 188.967 12.3182C189.428 12.017 189.95 11.7898 190.536 11.6364C191.126 11.483 191.746 11.375 192.394 11.3125C193.155 11.233 193.769 11.1591 194.234 11.0909C194.7 11.017 195.038 10.9091 195.249 10.767C195.459 10.625 195.564 10.4148 195.564 10.1364V10.0852C195.564 9.54545 195.394 9.12784 195.053 8.83239C194.717 8.53693 194.24 8.3892 193.621 8.3892C192.967 8.3892 192.447 8.53409 192.061 8.82386C191.675 9.10795 191.419 9.46591 191.294 9.89773L187.936 9.625C188.107 8.82955 188.442 8.14204 188.942 7.5625C189.442 6.97727 190.087 6.52841 190.876 6.21591C191.672 5.89773 192.592 5.73864 193.638 5.73864C194.365 5.73864 195.061 5.82386 195.726 5.99432C196.396 6.16477 196.99 6.42898 197.507 6.78693C198.03 7.14489 198.442 7.60511 198.743 8.16761C199.044 8.72443 199.195 9.39205 199.195 10.1705V19H195.751V17.1847H195.649C195.439 17.5937 195.158 17.9545 194.805 18.267C194.453 18.5739 194.03 18.8153 193.536 18.9915C193.041 19.1619 192.47 19.2472 191.822 19.2472ZM192.862 16.7415C193.396 16.7415 193.868 16.6364 194.277 16.4261C194.686 16.2102 195.007 15.9205 195.24 15.5568C195.473 15.1932 195.59 14.7812 195.59 14.321V12.9318C195.476 13.0057 195.32 13.0739 195.121 13.1364C194.928 13.1932 194.709 13.2472 194.465 13.2983C194.22 13.3437 193.976 13.3864 193.732 13.4261C193.487 13.4602 193.266 13.4915 193.067 13.5199C192.641 13.5824 192.269 13.6818 191.95 13.8182C191.632 13.9545 191.385 14.1392 191.209 14.3722C191.033 14.5994 190.945 14.8835 190.945 15.2244C190.945 15.7187 191.124 16.0966 191.482 16.358C191.845 16.6136 192.305 16.7415 192.862 16.7415Z" fill="#ffffff"/><path d="M206.835 19.2131C205.841 19.2131 204.94 18.9574 204.134 18.446C203.332 17.929 202.696 17.1705 202.224 16.1705C201.759 15.1648 201.526 13.9318 201.526 12.4716C201.526 10.9716 201.767 9.72443 202.25 8.73011C202.733 7.73011 203.375 6.98295 204.176 6.48864C204.983 5.98864 205.867 5.73864 206.827 5.73864C207.56 5.73864 208.17 5.86364 208.659 6.11364C209.153 6.35795 209.551 6.66477 209.852 7.03409C210.159 7.39773 210.392 7.75568 210.551 8.10795H210.662V1.54545H214.284V19H210.705V16.9034H210.551C210.381 17.267 210.139 17.6278 209.827 17.9858C209.52 18.3381 209.119 18.6307 208.625 18.8636C208.136 19.0966 207.54 19.2131 206.835 19.2131ZM207.986 16.3239C208.571 16.3239 209.065 16.1648 209.469 15.8466C209.878 15.5227 210.19 15.071 210.406 14.4915C210.628 13.9119 210.739 13.233 210.739 12.4545C210.739 11.6761 210.631 11 210.415 10.4261C210.199 9.85227 209.886 9.40909 209.477 9.09659C209.068 8.78409 208.571 8.62784 207.986 8.62784C207.389 8.62784 206.886 8.78977 206.477 9.11364C206.068 9.4375 205.759 9.88636 205.548 10.4602C205.338 11.0341 205.233 11.6989 205.233 12.4545C205.233 13.2159 205.338 13.8892 205.548 14.4744C205.764 15.054 206.074 15.5085 206.477 15.8381C206.886 16.1619 207.389 16.3239 207.986 16.3239Z" fill="#ffffff"/><path d="M221.002 19.2472C220.167 19.2472 219.423 19.1023 218.769 18.8125C218.116 18.517 217.599 18.0824 217.218 17.5085C216.843 16.929 216.656 16.2074 216.656 15.3438C216.656 14.6165 216.789 14.0057 217.056 13.5114C217.323 13.017 217.687 12.6193 218.147 12.3182C218.607 12.017 219.13 11.7898 219.715 11.6364C220.306 11.483 220.925 11.375 221.573 11.3125C222.335 11.233 222.948 11.1591 223.414 11.0909C223.88 11.017 224.218 10.9091 224.428 10.767C224.639 10.625 224.744 10.4148 224.744 10.1364V10.0852C224.744 9.54545 224.573 9.12784 224.232 8.83239C223.897 8.53693 223.42 8.3892 222.8 8.3892C222.147 8.3892 221.627 8.53409 221.241 8.82386C220.854 9.10795 220.599 9.46591 220.474 9.89773L217.116 9.625C217.286 8.82955 217.621 8.14204 218.121 7.5625C218.621 6.97727 219.266 6.52841 220.056 6.21591C220.852 5.89773 221.772 5.73864 222.818 5.73864C223.545 5.73864 224.241 5.82386 224.906 5.99432C225.576 6.16477 226.17 6.42898 226.687 6.78693C227.21 7.14489 227.621 7.60511 227.923 8.16761C228.224 8.72443 228.374 9.39205 228.374 10.1705V19H224.931V17.1847H224.829C224.619 17.5937 224.337 17.9545 223.985 18.267C223.633 18.5739 223.21 18.8153 222.715 18.9915C222.221 19.1619 221.65 19.2472 221.002 19.2472ZM222.042 16.7415C222.576 16.7415 223.048 16.6364 223.457 16.4261C223.866 16.2102 224.187 15.9205 224.42 15.5568C224.653 15.1932 224.769 14.7812 224.769 14.321V12.9318C224.656 13.0057 224.499 13.0739 224.3 13.1364C224.107 13.1932 223.889 13.2472 223.644 13.2983C223.4 13.3437 223.156 13.3864 222.911 13.4261C222.667 13.4602 222.445 13.4915 222.246 13.5199C221.82 13.5824 221.448 13.6818 221.13 13.8182C220.812 13.9545 220.565 14.1392 220.389 14.3722C220.212 14.5994 220.124 14.8835 220.124 15.2244C220.124 15.7187 220.303 16.0966 220.661 16.358C221.025 16.6136 221.485 16.7415 222.042 16.7415Z" fill="#ffffff"/><path d="M0.51709 41V23.5455H7.40345C8.72164 23.5455 9.84664 23.7812 10.7785 24.2528C11.716 24.7187 12.429 25.3807 12.9177 26.2386C13.412 27.0909 13.6591 28.0937 13.6591 29.2472C13.6591 30.4062 13.4091 31.4034 12.9091 32.2386C12.4091 33.0682 11.6847 33.7045 10.7358 34.1477C9.79266 34.5909 8.65061 34.8125 7.3097 34.8125H2.69891V31.8466H6.71311C7.41766 31.8466 8.00289 31.75 8.46879 31.5568C8.9347 31.3636 9.2813 31.0739 9.50857 30.6875C9.74152 30.3011 9.858 29.821 9.858 29.2472C9.858 28.6676 9.74152 28.179 9.50857 27.7812C9.2813 27.3835 8.93186 27.0824 8.46027 26.8778C7.99436 26.6676 7.40629 26.5625 6.69607 26.5625H4.20743V41H0.51709ZM9.94323 33.0568L14.2813 41H10.2074L5.96311 33.0568H9.94323Z" fill="#f3f3f3"/><path d="M24.5938 35.4261V27.9091H28.2245V41H24.7387V38.6222H24.6023C24.3069 39.3892 23.8154 40.0057 23.1279 40.4716C22.4461 40.9375 21.6137 41.1705 20.6307 41.1705C19.7557 41.1705 18.9858 40.9716 18.3211 40.5739C17.6563 40.1761 17.1364 39.6108 16.7614 38.8778C16.3921 38.1449 16.2046 37.267 16.1989 36.2443V27.9091H19.8296V35.5966C19.8353 36.3693 20.0427 36.9801 20.4517 37.429C20.8608 37.8778 21.4091 38.1023 22.0966 38.1023C22.5341 38.1023 22.9432 38.0028 23.3239 37.804C23.7046 37.5994 24.0114 37.2983 24.2444 36.9006C24.483 36.5028 24.5995 36.0114 24.5938 35.4261Z" fill="#f3f3f3"/><path d="M37.0945 41.2557C35.7479 41.2557 34.5888 40.983 33.6172 40.4375C32.6513 39.8864 31.907 39.108 31.3843 38.1023C30.8616 37.0909 30.6002 35.8949 30.6002 34.5142C30.6002 33.1676 30.8616 31.9858 31.3843 30.9688C31.907 29.9517 32.6428 29.1591 33.5917 28.5909C34.5462 28.0227 35.6655 27.7386 36.9496 27.7386C37.8133 27.7386 38.6172 27.8778 39.3615 28.1562C40.1115 28.429 40.765 28.8409 41.3218 29.392C41.8843 29.9432 42.3218 30.6364 42.6343 31.4716C42.9468 32.3011 43.103 33.2727 43.103 34.3864V35.3835H32.049V33.1335H39.6854C39.6854 32.6108 39.5718 32.1477 39.3445 31.7443C39.1172 31.3409 38.8019 31.0256 38.3985 30.7983C38.0008 30.5653 37.5377 30.4489 37.0093 30.4489C36.4581 30.4489 35.9695 30.5767 35.5434 30.8324C35.1229 31.0824 34.7934 31.4205 34.5547 31.8466C34.3161 32.267 34.1939 32.7358 34.1883 33.2528V35.392C34.1883 36.0398 34.3076 36.5994 34.5462 37.071C34.7905 37.5426 35.1343 37.9062 35.5775 38.1619C36.0206 38.4176 36.5462 38.5455 37.1542 38.5455C37.5576 38.5455 37.9269 38.4886 38.2621 38.375C38.5973 38.2614 38.8843 38.0909 39.1229 37.8636C39.3615 37.6364 39.5434 37.358 39.6684 37.0284L43.0263 37.25C42.8559 38.0568 42.5064 38.7614 41.978 39.3636C41.4553 39.9602 40.7792 40.4261 39.9496 40.7614C39.1258 41.0909 38.1741 41.2557 37.0945 41.2557Z" fill="#f3f3f3"/><path d="M51.0952 41V23.5455H57.9816C59.3054 23.5455 60.4333 23.7983 61.3651 24.304C62.2969 24.804 63.0071 25.5 63.4958 26.392C63.9901 27.2784 64.2373 28.3011 64.2373 29.4602C64.2373 30.6193 63.9873 31.642 63.4873 32.5284C62.9873 33.4148 62.2628 34.1051 61.314 34.5994C60.3708 35.0937 59.2287 35.3409 57.8878 35.3409H53.4986V32.3835H57.2912C58.0015 32.3835 58.5867 32.2614 59.0469 32.017C59.5128 31.767 59.8594 31.4233 60.0867 30.9858C60.3196 30.5426 60.4361 30.0341 60.4361 29.4602C60.4361 28.8807 60.3196 28.375 60.0867 27.9432C59.8594 27.5057 59.5128 27.1676 59.0469 26.929C58.581 26.6847 57.9901 26.5625 57.2742 26.5625H54.7856V41H51.0952Z" fill="#f3f3f3"/><path d="M66.5661 41V27.9091H70.086V30.1932H70.2223C70.461 29.3807 70.8615 28.767 71.424 28.3523C71.9865 27.9318 72.6343 27.7216 73.3672 27.7216C73.5491 27.7216 73.7451 27.733 73.9553 27.7557C74.1655 27.7784 74.3502 27.8097 74.5093 27.8494V31.071C74.3388 31.0199 74.103 30.9744 73.8019 30.9347C73.5008 30.8949 73.2252 30.875 72.9752 30.875C72.4411 30.875 71.9638 30.9915 71.5434 31.2244C71.1286 31.4517 70.7991 31.7699 70.5547 32.179C70.3161 32.5881 70.1968 33.0597 70.1968 33.5938V41H66.5661Z" fill="#f3f3f3"/><path d="M76.3864 41V27.9091H80.0171V41H76.3864ZM78.2103 26.2216C77.6705 26.2216 77.2074 26.0426 76.8211 25.6847C76.4404 25.321 76.25 24.8864 76.25 24.3807C76.25 23.8807 76.4404 23.4517 76.8211 23.0938C77.2074 22.7301 77.6705 22.5483 78.2103 22.5483C78.75 22.5483 79.2103 22.7301 79.591 23.0938C79.9773 23.4517 80.1705 23.8807 80.1705 24.3807C80.1705 24.8864 79.9773 25.321 79.591 25.6847C79.2103 26.0426 78.75 26.2216 78.2103 26.2216Z" fill="#f3f3f3"/><path d="M86.5562 33.4318V41H82.9255V27.9091H86.3857V30.2188H86.5391C86.8289 29.4574 87.3147 28.8551 87.9965 28.4119C88.6783 27.9631 89.505 27.7386 90.4766 27.7386C91.3857 27.7386 92.1783 27.9375 92.8544 28.3352C93.5306 28.733 94.0562 29.3011 94.4312 30.0398C94.8062 30.7727 94.9937 31.6477 94.9937 32.6648V41H91.363V33.3125C91.3686 32.5114 91.1641 31.8864 90.7493 31.4375C90.3346 30.983 89.7635 30.7557 89.0363 30.7557C88.5476 30.7557 88.1158 30.8608 87.7408 31.071C87.3715 31.2812 87.0817 31.5881 86.8715 31.9915C86.6669 32.3892 86.5618 32.8693 86.5562 33.4318Z" fill="#f3f3f3"/><path d="M103.77 41.2557C102.429 41.2557 101.276 40.9716 100.31 40.4034C99.3495 39.8295 98.6108 39.0341 98.0938 38.017C97.5824 37 97.3268 35.8295 97.3268 34.5057C97.3268 33.1648 97.5853 31.9886 98.1023 30.9773C98.625 29.9602 99.3665 29.1676 100.327 28.5994C101.287 28.0256 102.429 27.7386 103.753 27.7386C104.895 27.7386 105.895 27.946 106.753 28.3608C107.611 28.7756 108.29 29.358 108.79 30.108C109.29 30.858 109.565 31.7386 109.617 32.75H106.19C106.094 32.0966 105.838 31.571 105.423 31.1733C105.014 30.7699 104.477 30.5682 103.813 30.5682C103.25 30.5682 102.759 30.7216 102.338 31.0284C101.923 31.3295 101.599 31.7699 101.367 32.3494C101.134 32.929 101.017 33.6307 101.017 34.4545C101.017 35.2898 101.131 36 101.358 36.5852C101.591 37.1705 101.918 37.6165 102.338 37.9233C102.759 38.2301 103.25 38.3835 103.813 38.3835C104.227 38.3835 104.599 38.2983 104.929 38.1278C105.264 37.9574 105.54 37.7102 105.756 37.3864C105.977 37.0568 106.122 36.6619 106.19 36.2017H109.617C109.56 37.2017 109.287 38.0824 108.798 38.8438C108.315 39.5994 107.648 40.1903 106.796 40.6165C105.943 41.0426 104.935 41.2557 103.77 41.2557Z" fill="#f3f3f3"/><path d="M111.941 41V27.9091H115.572V41H111.941ZM113.765 26.2216C113.225 26.2216 112.762 26.0426 112.376 25.6847C111.995 25.321 111.805 24.8864 111.805 24.3807C111.805 23.8807 111.995 23.4517 112.376 23.0938C112.762 22.7301 113.225 22.5483 113.765 22.5483C114.305 22.5483 114.765 22.7301 115.146 23.0938C115.532 23.4517 115.725 23.8807 115.725 24.3807C115.725 24.8864 115.532 25.321 115.146 25.6847C114.765 26.0426 114.305 26.2216 113.765 26.2216Z" fill="#f3f3f3"/><path d="M118.48 45.9091V27.9091H122.06V30.108H122.222C122.381 29.7557 122.611 29.3977 122.912 29.0341C123.219 28.6648 123.617 28.358 124.105 28.1136C124.599 27.8636 125.213 27.7386 125.946 27.7386C126.901 27.7386 127.781 27.9886 128.588 28.4886C129.395 28.983 130.04 29.7301 130.523 30.7301C131.006 31.7244 131.247 32.9716 131.247 34.4716C131.247 35.9318 131.011 37.1648 130.54 38.1705C130.074 39.1705 129.438 39.929 128.631 40.446C127.83 40.9574 126.932 41.2131 125.938 41.2131C125.233 41.2131 124.634 41.0966 124.139 40.8636C123.651 40.6307 123.25 40.3381 122.938 39.9858C122.625 39.6278 122.386 39.267 122.222 38.9034H122.111V45.9091H118.48ZM122.034 34.4545C122.034 35.233 122.142 35.9119 122.358 36.4915C122.574 37.071 122.886 37.5227 123.296 37.8466C123.705 38.1648 124.202 38.3239 124.787 38.3239C125.378 38.3239 125.878 38.1619 126.287 37.8381C126.696 37.5085 127.006 37.054 127.216 36.4744C127.432 35.8892 127.54 35.2159 127.54 34.4545C127.54 33.6989 127.435 33.0341 127.224 32.4602C127.014 31.8864 126.705 31.4375 126.296 31.1136C125.886 30.7898 125.384 30.6278 124.787 30.6278C124.196 30.6278 123.696 30.7841 123.287 31.0966C122.884 31.4091 122.574 31.8523 122.358 32.4261C122.142 33 122.034 33.6761 122.034 34.4545Z" fill="#f3f3f3"/><path d="M137.401 41.2472C136.565 41.2472 135.821 41.1023 135.168 40.8125C134.514 40.517 133.997 40.0824 133.617 39.5085C133.242 38.929 133.054 38.2074 133.054 37.3438C133.054 36.6165 133.188 36.0057 133.455 35.5114C133.722 35.017 134.085 34.6193 134.546 34.3182C135.006 34.017 135.528 33.7898 136.114 33.6364C136.705 33.483 137.324 33.375 137.972 33.3125C138.733 33.233 139.347 33.1591 139.813 33.0909C140.278 33.017 140.617 32.9091 140.827 32.767C141.037 32.625 141.142 32.4148 141.142 32.1364V32.0852C141.142 31.5455 140.972 31.1278 140.631 30.8324C140.295 30.5369 139.818 30.3892 139.199 30.3892C138.546 30.3892 138.026 30.5341 137.639 30.8239C137.253 31.108 136.997 31.4659 136.872 31.8977L133.514 31.625C133.685 30.8295 134.02 30.142 134.52 29.5625C135.02 28.9773 135.665 28.5284 136.455 28.2159C137.25 27.8977 138.171 27.7386 139.216 27.7386C139.943 27.7386 140.639 27.8239 141.304 27.9943C141.974 28.1648 142.568 28.429 143.085 28.7869C143.608 29.1449 144.02 29.6051 144.321 30.1676C144.622 30.7244 144.773 31.392 144.773 32.1705V41H141.33V39.1847H141.227C141.017 39.5937 140.736 39.9545 140.384 40.267C140.031 40.5739 139.608 40.8153 139.114 40.9915C138.619 41.1619 138.048 41.2472 137.401 41.2472ZM138.44 38.7415C138.974 38.7415 139.446 38.6364 139.855 38.4261C140.264 38.2102 140.585 37.9205 140.818 37.5568C141.051 37.1932 141.168 36.7812 141.168 36.321V34.9318C141.054 35.0057 140.898 35.0739 140.699 35.1364C140.506 35.1932 140.287 35.2472 140.043 35.2983C139.798 35.3437 139.554 35.3864 139.31 35.4261C139.065 35.4602 138.844 35.4915 138.645 35.5199C138.219 35.5824 137.847 35.6818 137.528 35.8182C137.21 35.9545 136.963 36.1392 136.787 36.3722C136.611 36.5994 136.523 36.8835 136.523 37.2244C136.523 37.7187 136.702 38.0966 137.06 38.358C137.423 38.6136 137.884 38.7415 138.44 38.7415Z" fill="#f3f3f3"/><path d="M151.22 23.5455V41H147.59V23.5455H151.22Z" fill="#f3f3f3"/><path d="M160.094 41.2557C158.748 41.2557 157.589 40.983 156.617 40.4375C155.651 39.8864 154.907 39.108 154.384 38.1023C153.862 37.0909 153.6 35.8949 153.6 34.5142C153.6 33.1676 153.862 31.9858 154.384 30.9688C154.907 29.9517 155.643 29.1591 156.592 28.5909C157.546 28.0227 158.666 27.7386 159.95 27.7386C160.813 27.7386 161.617 27.8778 162.362 28.1562C163.112 28.429 163.765 28.8409 164.322 29.392C164.884 29.9432 165.322 30.6364 165.634 31.4716C165.947 32.3011 166.103 33.2727 166.103 34.3864V35.3835H155.049V33.1335H162.685C162.685 32.6108 162.572 32.1477 162.344 31.7443C162.117 31.3409 161.802 31.0256 161.398 30.7983C161.001 30.5653 160.538 30.4489 160.009 30.4489C159.458 30.4489 158.97 30.5767 158.543 30.8324C158.123 31.0824 157.793 31.4205 157.555 31.8466C157.316 32.267 157.194 32.7358 157.188 33.2528V35.392C157.188 36.0398 157.308 36.5994 157.546 37.071C157.791 37.5426 158.134 37.9062 158.577 38.1619C159.021 38.4176 159.546 38.5455 160.154 38.5455C160.558 38.5455 160.927 38.4886 161.262 38.375C161.597 38.2614 161.884 38.0909 162.123 37.8636C162.362 37.6364 162.543 37.358 162.668 37.0284L166.026 37.25C165.856 38.0568 165.506 38.7614 164.978 39.3636C164.455 39.9602 163.779 40.4261 162.95 40.7614C162.126 41.0909 161.174 41.2557 160.094 41.2557Z" fill="#f3f3f3"/><path d="M189.496 29.6562H185.763C185.695 29.1733 185.555 28.7443 185.345 28.3693C185.135 27.9886 184.865 27.6648 184.536 27.3977C184.206 27.1307 183.825 26.9261 183.394 26.7841C182.967 26.642 182.504 26.571 182.004 26.571C181.101 26.571 180.314 26.7955 179.644 27.2443C178.973 27.6875 178.453 28.3352 178.084 29.1875C177.715 30.0341 177.53 31.0625 177.53 32.2727C177.53 33.517 177.715 34.5625 178.084 35.4091C178.459 36.2557 178.982 36.8949 179.652 37.3267C180.322 37.7585 181.098 37.9744 181.979 37.9744C182.473 37.9744 182.93 37.9091 183.351 37.7784C183.777 37.6477 184.155 37.4574 184.484 37.2074C184.814 36.9517 185.087 36.642 185.303 36.2784C185.524 35.9148 185.678 35.5 185.763 35.0341L189.496 35.0511C189.399 35.8523 189.158 36.625 188.771 37.3693C188.391 38.108 187.876 38.7699 187.229 39.3551C186.587 39.9347 185.82 40.3949 184.928 40.7358C184.041 41.071 183.038 41.2386 181.919 41.2386C180.362 41.2386 178.97 40.8864 177.743 40.1818C176.521 39.4773 175.555 38.4574 174.845 37.1222C174.141 35.7869 173.788 34.1705 173.788 32.2727C173.788 30.3693 174.146 28.75 174.862 27.4148C175.578 26.0795 176.55 25.0625 177.777 24.3636C179.004 23.6591 180.385 23.3068 181.919 23.3068C182.93 23.3068 183.868 23.4489 184.732 23.733C185.601 24.017 186.371 24.4318 187.041 24.9773C187.712 25.517 188.257 26.179 188.678 26.9631C189.104 27.7472 189.376 28.6449 189.496 29.6562Z" fill="#f3f3f3"/><path d="M195.807 41.2472C194.972 41.2472 194.227 41.1023 193.574 40.8125C192.921 40.517 192.403 40.0824 192.023 39.5085C191.648 38.929 191.46 38.2074 191.46 37.3438C191.46 36.6165 191.594 36.0057 191.861 35.5114C192.128 35.017 192.492 34.6193 192.952 34.3182C193.412 34.017 193.935 33.7898 194.52 33.6364C195.111 33.483 195.73 33.375 196.378 33.3125C197.139 33.233 197.753 33.1591 198.219 33.0909C198.685 33.017 199.023 32.9091 199.233 32.767C199.443 32.625 199.548 32.4148 199.548 32.1364V32.0852C199.548 31.5455 199.378 31.1278 199.037 30.8324C198.702 30.5369 198.224 30.3892 197.605 30.3892C196.952 30.3892 196.432 30.5341 196.046 30.8239C195.659 31.108 195.403 31.4659 195.278 31.8977L191.921 31.625C192.091 30.8295 192.426 30.142 192.926 29.5625C193.426 28.9773 194.071 28.5284 194.861 28.2159C195.656 27.8977 196.577 27.7386 197.622 27.7386C198.349 27.7386 199.045 27.8239 199.71 27.9943C200.381 28.1648 200.974 28.429 201.492 28.7869C202.014 29.1449 202.426 29.6051 202.727 30.1676C203.028 30.7244 203.179 31.392 203.179 32.1705V41H199.736V39.1847H199.634C199.423 39.5937 199.142 39.9545 198.79 40.267C198.438 40.5739 198.014 40.8153 197.52 40.9915C197.026 41.1619 196.455 41.2472 195.807 41.2472ZM196.847 38.7415C197.381 38.7415 197.852 38.6364 198.261 38.4261C198.671 38.2102 198.992 37.9205 199.224 37.5568C199.457 37.1932 199.574 36.7812 199.574 36.321V34.9318C199.46 35.0057 199.304 35.0739 199.105 35.1364C198.912 35.1932 198.693 35.2472 198.449 35.2983C198.205 35.3437 197.96 35.3864 197.716 35.4261C197.472 35.4602 197.25 35.4915 197.051 35.5199C196.625 35.5824 196.253 35.6818 195.935 35.8182C195.617 35.9545 195.369 36.1392 195.193 36.3722C195.017 36.5994 194.929 36.8835 194.929 37.2244C194.929 37.7187 195.108 38.0966 195.466 38.358C195.83 38.6136 196.29 38.7415 196.847 38.7415Z" fill="#f3f3f3"/><path d="M209.626 33.4318V41H205.996V27.9091H209.456V30.2188H209.609C209.899 29.4574 210.385 28.8551 211.067 28.4119C211.749 27.9631 212.575 27.7386 213.547 27.7386C214.456 27.7386 215.249 27.9375 215.925 28.3352C216.601 28.733 217.126 29.3011 217.501 30.0398C217.876 30.7727 218.064 31.6477 218.064 32.6648V41H214.433V33.3125C214.439 32.5114 214.234 31.8864 213.82 31.4375C213.405 30.983 212.834 30.7557 212.107 30.7557C211.618 30.7557 211.186 30.8608 210.811 31.071C210.442 31.2812 210.152 31.5881 209.942 31.9915C209.737 32.3892 209.632 32.8693 209.626 33.4318Z" fill="#f3f3f3"/><path d="M224.658 41.2472C223.823 41.2472 223.079 41.1023 222.425 40.8125C221.772 40.517 221.255 40.0824 220.874 39.5085C220.499 38.929 220.312 38.2074 220.312 37.3438C220.312 36.6165 220.445 36.0057 220.712 35.5114C220.979 35.017 221.343 34.6193 221.803 34.3182C222.264 34.017 222.786 33.7898 223.371 33.6364C223.962 33.483 224.582 33.375 225.229 33.3125C225.991 33.233 226.604 33.1591 227.07 33.0909C227.536 33.017 227.874 32.9091 228.085 32.767C228.295 32.625 228.4 32.4148 228.4 32.1364V32.0852C228.4 31.5455 228.229 31.1278 227.889 30.8324C227.553 30.5369 227.076 30.3892 226.457 30.3892C225.803 30.3892 225.283 30.5341 224.897 30.8239C224.511 31.108 224.255 31.4659 224.13 31.8977L220.772 31.625C220.943 30.8295 221.278 30.142 221.778 29.5625C222.278 28.9773 222.923 28.5284 223.712 28.2159C224.508 27.8977 225.428 27.7386 226.474 27.7386C227.201 27.7386 227.897 27.8239 228.562 27.9943C229.232 28.1648 229.826 28.429 230.343 28.7869C230.866 29.1449 231.278 29.6051 231.579 30.1676C231.88 30.7244 232.031 31.392 232.031 32.1705V41H228.587V39.1847H228.485C228.275 39.5937 227.994 39.9545 227.641 40.267C227.289 40.5739 226.866 40.8153 226.371 40.9915C225.877 41.1619 225.306 41.2472 224.658 41.2472ZM225.698 38.7415C226.232 38.7415 226.704 38.6364 227.113 38.4261C227.522 38.2102 227.843 37.9205 228.076 37.5568C228.309 37.1932 228.425 36.7812 228.425 36.321V34.9318C228.312 35.0057 228.156 35.0739 227.957 35.1364C227.764 35.1932 227.545 35.2472 227.3 35.2983C227.056 35.3437 226.812 35.3864 226.568 35.4261C226.323 35.4602 226.102 35.4915 225.903 35.5199C225.477 35.5824 225.104 35.6818 224.786 35.8182C224.468 35.9545 224.221 36.1392 224.045 36.3722C223.869 36.5994 223.781 36.8835 223.781 37.2244C223.781 37.7187 223.96 38.0966 224.318 38.358C224.681 38.6136 225.141 38.7415 225.698 38.7415Z" fill="#f3f3f3"/><path d="M239.671 41.2131C238.677 41.2131 237.776 40.9574 236.969 40.446C236.168 39.929 235.532 39.1705 235.06 38.1705C234.595 37.1648 234.362 35.9318 234.362 34.4716C234.362 32.9716 234.603 31.7244 235.086 30.7301C235.569 29.7301 236.211 28.983 237.012 28.4886C237.819 27.9886 238.702 27.7386 239.663 27.7386C240.396 27.7386 241.006 27.8636 241.495 28.1136C241.989 28.358 242.387 28.6648 242.688 29.0341C242.995 29.3977 243.228 29.7557 243.387 30.108H243.498V23.5455H247.12V41H243.541V38.9034H243.387C243.217 39.267 242.975 39.6278 242.663 39.9858C242.356 40.3381 241.955 40.6307 241.461 40.8636C240.972 41.0966 240.376 41.2131 239.671 41.2131ZM240.822 38.3239C241.407 38.3239 241.901 38.1648 242.305 37.8466C242.714 37.5227 243.026 37.071 243.242 36.4915C243.464 35.9119 243.575 35.233 243.575 34.4545C243.575 33.6761 243.467 33 243.251 32.4261C243.035 31.8523 242.722 31.4091 242.313 31.0966C241.904 30.7841 241.407 30.6278 240.822 30.6278C240.225 30.6278 239.722 30.7898 239.313 31.1136C238.904 31.4375 238.595 31.8864 238.384 32.4602C238.174 33.0341 238.069 33.6989 238.069 34.4545C238.069 35.2159 238.174 35.8892 238.384 36.4744C238.6 37.054 238.91 37.5085 239.313 37.8381C239.722 38.1619 240.225 38.3239 240.822 38.3239Z" fill="#f3f3f3"/><path d="M253.838 41.2472C253.003 41.2472 252.259 41.1023 251.605 40.8125C250.952 40.517 250.435 40.0824 250.054 39.5085C249.679 38.929 249.492 38.2074 249.492 37.3438C249.492 36.6165 249.625 36.0057 249.892 35.5114C250.159 35.017 250.523 34.6193 250.983 34.3182C251.443 34.017 251.966 33.7898 252.551 33.6364C253.142 33.483 253.761 33.375 254.409 33.3125C255.17 33.233 255.784 33.1591 256.25 33.0909C256.716 33.017 257.054 32.9091 257.264 32.767C257.474 32.625 257.58 32.4148 257.58 32.1364V32.0852C257.58 31.5455 257.409 31.1278 257.068 30.8324C256.733 30.5369 256.256 30.3892 255.636 30.3892C254.983 30.3892 254.463 30.5341 254.077 30.8239C253.69 31.108 253.435 31.4659 253.31 31.8977L249.952 31.625C250.122 30.8295 250.457 30.142 250.957 29.5625C251.457 28.9773 252.102 28.5284 252.892 28.2159C253.688 27.8977 254.608 27.7386 255.653 27.7386C256.381 27.7386 257.077 27.8239 257.742 27.9943C258.412 28.1648 259.006 28.429 259.523 28.7869C260.045 29.1449 260.457 29.6051 260.759 30.1676C261.06 30.7244 261.21 31.392 261.21 32.1705V41H257.767V39.1847H257.665C257.455 39.5937 257.173 39.9545 256.821 40.267C256.469 40.5739 256.045 40.8153 255.551 40.9915C255.057 41.1619 254.486 41.2472 253.838 41.2472ZM254.878 38.7415C255.412 38.7415 255.884 38.6364 256.293 38.4261C256.702 38.2102 257.023 37.9205 257.256 37.5568C257.489 37.1932 257.605 36.7812 257.605 36.321V34.9318C257.492 35.0057 257.335 35.0739 257.136 35.1364C256.943 35.1932 256.724 35.2472 256.48 35.2983C256.236 35.3437 255.992 35.3864 255.747 35.4261C255.503 35.4602 255.281 35.4915 255.082 35.5199C254.656 35.5824 254.284 35.6818 253.966 35.8182C253.648 35.9545 253.401 36.1392 253.224 36.3722C253.048 36.5994 252.96 36.8835 252.96 37.2244C252.96 37.7187 253.139 38.0966 253.497 38.358C253.861 38.6136 254.321 38.7415 254.878 38.7415Z" fill="#f3f3f3"/></svg>